<?xml version="1.0"?>
<svg xmlns="http://www.w3.org/2000/svg" xmlns:xlink="http://www.w3.org/1999/xlink" version="1.1" id="Capa_1" x="0px" y="0px" viewBox="0 0 512 512" style="enable-background:new 0 0 512 512;" xml:space="preserve" width="512px" height="512px"><g><g>
	<g>
		<path d="M503.467,494.933H409.6V8.533c0-4.71-3.823-8.533-8.533-8.533H110.933c-4.71,0-8.533,3.823-8.533,8.533v486.4H8.533    c-4.71,0-8.533,3.823-8.533,8.533S3.823,512,8.533,512h102.4h34.133h221.867h34.133h102.4c4.71,0,8.533-3.823,8.533-8.533    S508.177,494.933,503.467,494.933z M341.333,469.333c0,4.71-3.823,8.533-8.533,8.533H179.2c-4.71,0-8.533-3.823-8.533-8.533V307.2    c0-4.71,3.823-8.533,8.533-8.533h153.6c4.71,0,8.533,3.823,8.533,8.533V469.333z M170.667,273.067c0-4.71,3.823-8.533,8.533-8.533    h34.133c4.71,0,8.533,3.823,8.533,8.533c0,4.71-3.823,8.533-8.533,8.533H179.2C174.49,281.6,170.667,277.777,170.667,273.067z     M341.333,238.933c0,4.71-3.823,8.533-8.533,8.533H179.2c-4.71,0-8.533-3.823-8.533-8.533V76.8c0-4.71,3.823-8.533,8.533-8.533    h153.6c4.71,0,8.533,3.823,8.533,8.533V238.933z M375.467,494.933H358.4V51.2H153.6v443.733h-17.067V42.667    c0-4.71,3.823-8.533,8.533-8.533h221.867c4.71,0,8.533,3.823,8.533,8.533V494.933z" data-original="#000000" class="active-path" data-old_color="#000000" fill="#202D4D"/>
	</g>
</g><g>
	<g>
		<rect x="187.733" y="315.733" width="136.533" height="145.067" data-original="#000000" class="active-path" data-old_color="#000000" fill="#202D4D"/>
	</g>
</g><g>
	<g>
		<rect x="187.733" y="85.333" width="136.533" height="145.067" data-original="#000000" class="active-path" data-old_color="#000000" fill="#202D4D"/>
	</g>
</g></g> </svg>
